<?xml version="1.0" encoding="utf-8"?>
<!-- Generator: Adobe Illustrator 24.1.3, SVG Export Plug-In . SVG Version: 6.00 Build 0)  -->
<svg version="1.1" id="Layer_1" xmlns="http://www.w3.org/2000/svg" xmlns:xlink="http://www.w3.org/1999/xlink" x="0px" y="0px"
	 viewBox="0 0 625.06 373.42" style="enable-background:new 0 0 625.06 373.42;" xml:space="preserve">
<style type="text/css">
	.st0{fill:#528945;}
	.st1{fill:none;stroke:#3B632F;stroke-miterlimit:10;}
	.st2{fill:none;stroke:#C2AD5B;stroke-width:9;stroke-miterlimit:10;}
	.st3{fill:#C2AD5B;}
</style>
<g>
	<path class="st0" d="M16.3,344.75c0,15.66,12.69,28.35,28.35,28.35h533.48c15.66,0,28.35-12.69,28.35-28.35V28.06
		c0-15.66-12.69-28.35-28.35-28.35H44.65c-15.66,0-28.35,12.69-28.35,28.35V344.75z"/>
	<path class="st1" d="M16.3,344.75c0,15.66,12.69,28.35,28.35,28.35h533.48c15.66,0,28.35-12.69,28.35-28.35V28.06
		c0-15.66-12.69-28.35-28.35-28.35H44.65c-15.66,0-28.35,12.69-28.35,28.35V344.75z"/>
</g>
<ellipse class="st2" cx="311.39" cy="186.4" rx="242.6" ry="143.6"/>
<g>
	<path class="st3" d="M196.06,173.49h5.33v10.68l10.01-10.68h7l-10.63,10.66l11.18,15.25h-6.96l-7.98-11.31l-2.61,2.64v8.67h-5.33
		V173.49z"/>
	<path class="st3" d="M234.05,180.63c1.34,0.6,2.44,1.54,3.31,2.83c0.78,1.14,1.29,2.46,1.53,3.96c0.14,0.88,0.19,2.15,0.17,3.8
		H225.1c0.08,1.92,0.75,3.27,2,4.04c0.77,0.48,1.69,0.72,2.76,0.72c1.14,0,2.07-0.29,2.78-0.88c0.39-0.32,0.73-0.76,1.03-1.32h5.11
		c-0.13,1.14-0.75,2.29-1.86,3.46c-1.72,1.86-4.12,2.79-7.21,2.79c-2.55,0-4.8-0.79-6.75-2.36c-1.95-1.57-2.92-4.13-2.92-7.67
		c0-3.32,0.88-5.86,2.64-7.63c1.76-1.77,4.04-2.66,6.85-2.66C231.21,179.73,232.72,180.03,234.05,180.63z M226.56,184.96
		c-0.71,0.73-1.15,1.72-1.33,2.97h8.63c-0.09-1.33-0.54-2.34-1.33-3.03s-1.79-1.03-2.97-1.03
		C228.26,183.86,227.27,184.23,226.56,184.96z"/>
	<path class="st3" d="M257.95,182.55c1.43,1.82,2.15,4.16,2.15,7.03c0,2.98-0.71,5.44-2.12,7.4c-1.41,1.96-3.39,2.94-5.92,2.94
		c-1.59,0-2.87-0.32-3.83-0.95c-0.58-0.38-1.2-1.03-1.87-1.97v2.41h-4.94v-25.87h5.01v9.21c0.64-0.89,1.34-1.57,2.11-2.04
		c0.91-0.59,2.06-0.88,3.47-0.88C254.53,179.82,256.51,180.73,257.95,182.55z M253.76,194.22c0.72-1.04,1.08-2.41,1.08-4.11
		c0-1.36-0.18-2.48-0.53-3.38c-0.67-1.69-1.91-2.53-3.72-2.53c-1.83,0-3.09,0.83-3.78,2.48c-0.35,0.88-0.53,2.02-0.53,3.41
		c0,1.64,0.37,3,1.1,4.08c0.73,1.08,1.85,1.62,3.35,1.62C252.03,195.78,253.04,195.26,253.76,194.22z"/>
	<path class="st3" d="M279.03,181.34c1.25,1.04,1.88,2.76,1.88,5.16v12.9h-5.13v-11.65c0-1.01-0.13-1.78-0.4-2.32
		c-0.49-0.98-1.42-1.48-2.79-1.48c-1.69,0-2.84,0.72-3.47,2.16c-0.33,0.76-0.49,1.73-0.49,2.92v10.37h-5.01v-19.12h4.85v2.79
		c0.64-0.98,1.25-1.69,1.82-2.13c1.03-0.77,2.33-1.16,3.9-1.16C276.16,179.79,277.77,180.31,279.03,181.34z"/>
	<path class="st3" d="M298.05,180.63c1.34,0.6,2.44,1.54,3.31,2.83c0.78,1.14,1.29,2.46,1.53,3.96c0.14,0.88,0.19,2.15,0.17,3.8
		H289.1c0.08,1.92,0.75,3.27,2,4.04c0.77,0.48,1.69,0.72,2.76,0.72c1.14,0,2.07-0.29,2.78-0.88c0.39-0.32,0.73-0.76,1.03-1.32h5.11
		c-0.13,1.14-0.75,2.29-1.86,3.46c-1.72,1.86-4.12,2.79-7.21,2.79c-2.55,0-4.8-0.79-6.75-2.36c-1.95-1.57-2.92-4.13-2.92-7.67
		c0-3.32,0.88-5.86,2.64-7.63c1.76-1.77,4.04-2.66,6.85-2.66C295.22,179.73,296.72,180.03,298.05,180.63z M290.56,184.96
		c-0.71,0.73-1.15,1.72-1.33,2.97h8.63c-0.09-1.33-0.54-2.34-1.33-3.03s-1.79-1.03-2.97-1.03
		C292.26,183.86,291.27,184.23,290.56,184.96z"/>
	<path class="st3" d="M319.9,191.41c0.17,1.18,0.5,2.07,0.99,2.65c0.9,1.07,2.43,1.6,4.61,1.6c1.3,0,2.36-0.14,3.18-0.42
		c1.54-0.54,2.32-1.54,2.32-3.01c0-0.86-0.38-1.52-1.13-1.99c-0.76-0.46-1.96-0.86-3.6-1.21l-2.8-0.62
		c-2.76-0.61-4.65-1.27-5.68-1.99c-1.75-1.2-2.62-3.06-2.62-5.61c0-2.32,0.85-4.25,2.56-5.78s4.22-2.3,7.53-2.3
		c2.76,0,5.12,0.72,7.07,2.17c1.95,1.45,2.97,3.55,3.07,6.3h-5.2c-0.1-1.56-0.79-2.67-2.09-3.32c-0.87-0.43-1.94-0.65-3.23-0.65
		c-1.43,0-2.57,0.28-3.42,0.84c-0.85,0.56-1.28,1.35-1.28,2.36c0,0.93,0.42,1.62,1.26,2.07c0.54,0.3,1.69,0.66,3.44,1.07l4.55,1.07
		c1.99,0.47,3.49,1.1,4.48,1.88c1.54,1.22,2.32,2.98,2.32,5.29c0,2.37-0.92,4.33-2.75,5.9s-4.42,2.35-7.75,2.35
		c-3.41,0-6.09-0.77-8.05-2.31s-2.93-3.66-2.93-6.35H319.9z"/>
	<path class="st3" d="M353.37,180.35c0.96,0.41,1.75,1.04,2.37,1.88c0.53,0.72,0.85,1.45,0.96,2.21c0.12,0.76,0.17,1.99,0.17,3.7
		v11.26h-5.12v-11.67c0-1.03-0.17-1.87-0.52-2.5c-0.45-0.89-1.31-1.34-2.58-1.34c-1.31,0-2.31,0.44-2.99,1.33s-1.02,2.15-1.02,3.79
		v10.38h-5.01v-25.82h5.01v9.14c0.72-1.11,1.56-1.89,2.51-2.33s1.95-0.66,3-0.66C351.34,179.73,352.41,179.94,353.37,180.35z"/>
	<path class="st3" d="M374.08,180.63c1.34,0.6,2.44,1.54,3.31,2.83c0.78,1.14,1.29,2.46,1.53,3.96c0.13,0.88,0.19,2.15,0.17,3.8
		h-13.96c0.08,1.92,0.75,3.27,2,4.04c0.77,0.48,1.69,0.72,2.76,0.72c1.14,0,2.07-0.29,2.78-0.88c0.39-0.32,0.73-0.76,1.03-1.32h5.11
		c-0.13,1.14-0.75,2.29-1.86,3.46c-1.72,1.86-4.12,2.79-7.21,2.79c-2.55,0-4.8-0.79-6.75-2.36c-1.95-1.57-2.92-4.13-2.92-7.67
		c0-3.32,0.88-5.86,2.64-7.63c1.76-1.77,4.04-2.66,6.85-2.66C371.24,179.73,372.74,180.03,374.08,180.63z M366.58,184.96
		c-0.71,0.73-1.15,1.72-1.33,2.97h8.63c-0.09-1.33-0.54-2.34-1.33-3.03s-1.79-1.03-2.97-1.03
		C368.29,183.86,367.29,184.23,366.58,184.96z"/>
	<path class="st3" d="M392.26,179.8c0.06,0.01,0.21,0.01,0.43,0.03v5.13c-0.32-0.04-0.6-0.06-0.84-0.07s-0.45-0.02-0.6-0.02
		c-2.02,0-3.37,0.66-4.06,1.97c-0.39,0.74-0.58,1.88-0.58,3.41v9.16h-5.04v-19.16h4.78v3.34c0.77-1.28,1.45-2.15,2.02-2.62
		c0.94-0.79,2.16-1.18,3.66-1.18C392.12,179.79,392.19,179.79,392.26,179.8z"/>
	<path class="st3" d="M400.78,177.96h-5.08v-4.62h5.08V177.96z M395.7,180.24h5.08v19.16h-5.08V180.24z"/>
	<path class="st3" d="M413.55,173.26c0.26,0.02,0.61,0.04,1.05,0.08v4.08c-0.28-0.04-0.75-0.06-1.42-0.08s-1.12,0.13-1.37,0.44
		s-0.38,0.65-0.38,1.03s0,0.91,0,1.62h3.29v3.53h-3.29v15.45h-4.97v-15.45h-2.81v-3.53h2.74v-1.23c0-2.05,0.35-3.46,1.04-4.24
		c0.73-1.15,2.48-1.72,5.26-1.72C413.01,173.23,413.3,173.24,413.55,173.26z"/>
	<path class="st3" d="M425.54,173.26c0.26,0.02,0.61,0.04,1.05,0.08v4.08c-0.28-0.04-0.75-0.06-1.42-0.08s-1.12,0.13-1.37,0.44
		s-0.38,0.65-0.38,1.03s0,0.91,0,1.62h3.29v3.53h-3.29v15.45h-4.97v-15.45h-2.81v-3.53h2.74v-1.23c0-2.05,0.35-3.46,1.04-4.24
		c0.73-1.15,2.48-1.72,5.26-1.72C425,173.23,425.29,173.24,425.54,173.26z"/>
</g>
</svg>
